<?xml version="1.0" encoding="UTF-8" standalone="no"?>
<!-- Created with Inkscape (http://www.inkscape.org/) -->

<svg
   xmlns:dc="http://purl.org/dc/elements/1.1/"
   xmlns:cc="http://creativecommons.org/ns#"
   xmlns:rdf="http://www.w3.org/1999/02/22-rdf-syntax-ns#"
   xmlns:svg="http://www.w3.org/2000/svg"
   xmlns="http://www.w3.org/2000/svg"
   xmlns:sodipodi="http://sodipodi.sourceforge.net/DTD/sodipodi-0.dtd"
   xmlns:inkscape="http://www.inkscape.org/namespaces/inkscape"
   width="500"
   height="200"
   id="svg2"
   version="1.1"
   inkscape:version="0.48.3.1 r9886"
   sodipodi:docname="New document 1">
  <defs
     id="defs4" />
  <sodipodi:namedview
     id="base"
     pagecolor="#ffffff"
     bordercolor="#666666"
     borderopacity="1.0"
     inkscape:pageopacity="0.0"
     inkscape:pageshadow="2"
     inkscape:zoom="1.4"
     inkscape:cx="245.45113"
     inkscape:cy="119.26768"
     inkscape:document-units="px"
     inkscape:current-layer="layer1"
     showgrid="false"
     inkscape:window-width="1461"
     inkscape:window-height="759"
     inkscape:window-x="246"
     inkscape:window-y="181"
     inkscape:window-maximized="0" />
  <metadata
     id="metadata7">
    <rdf:RDF>
      <cc:Work
         rdf:about="">
        <dc:format>image/svg+xml</dc:format>
        <dc:type
           rdf:resource="http://purl.org/dc/dcmitype/StillImage" />
        <dc:title></dc:title>
      </cc:Work>
    </rdf:RDF>
  </metadata>
  <g
     inkscape:label="Layer 1"
     inkscape:groupmode="layer"
     id="layer1"
     transform="translate(0,-852.36218)">
    <path
       style="fill:#ffffff;fill-opacity:1;stroke:none"
       id="path3005"
       d="m 84.173793,74.471217 c 6.555426,-1.72407 13.141748,-3.336908 19.821027,-4.51721 2.5618,-0.4527 5.13906,-0.813158 7.70859,-1.219736 12.90287,-1.45784 26.92195,-3.021144 39.5803,0.88498 1.83347,0.565777 3.54809,1.462191 5.32214,2.193286 1.24224,0.910377 2.65591,1.624202 3.72674,2.731131 2.86405,2.960612 3.20854,7.048136 1.13567,10.557706 -2.1089,3.570557 -4.5598,4.84073 -7.84958,7.324396 -4.83567,2.696878 -9.56203,5.59984 -14.507,8.09063 -3.9084,1.96867 -12.91064,4.96095 -16.87671,6.12642 -6.56949,1.9305 -13.72957,3.61721 -20.49127,4.68324 -3.51336,0.55391 -7.063174,0.8448 -10.594763,1.2672 -12.481705,0.91774 -25.1898,0.15597 -37.043227,-4.16342 -6.064182,-2.2098 -6.822186,-3.06407 -11.989631,-6.36783 -2.615906,-2.351739 -7.188325,-6.048982 -5.606419,-10.34655 0.426463,-1.158575 1.232034,-2.257782 2.269579,-2.926861 11.586921,-7.47203 9.656372,-6.445716 19.507937,-7.889638 2.734997,0.02497 5.475715,-0.103668 8.20499,0.0749 6.880697,0.450188 13.907339,1.697219 20.620444,3.176024 12.391981,2.729784 24.43777,6.6175 36.50347,10.493009 4.06503,1.349111 8.13005,2.698222 12.19508,4.047332 0,0 -6.92931,4.701801 -6.92931,4.701801 l 0,0 C 124.82962,102.03837 120.7774,100.6847 116.72517,99.331034 104.5978,95.480417 92.493844,91.656686 80.003365,89.123949 73.217883,87.748034 65.998278,86.628564 59.050935,86.390676 c -2.785067,-0.09537 -5.571344,0.15128 -8.357017,0.22692 -2.094848,0.418862 -12.901523,3.589124 -2.627773,-1.725314 0.999079,-0.516806 -1.938241,1.299468 -2.485948,2.281946 -2.109086,3.783281 2.386648,7.590223 4.606947,9.709095 4.945938,3.300177 5.651417,4.150747 11.527368,6.349447 11.643137,4.35669 24.184328,5.04276 36.467992,4.11854 3.515946,-0.4383 7.051356,-0.74169 10.547846,-1.31489 6.82932,-1.11958 13.95997,-2.86186 20.57659,-4.89023 3.09855,-0.94988 6.13115,-2.1029 9.19672,-3.154353 2.64541,-1.121814 5.2051,-2.472327 7.93621,-3.365444 0.71056,-0.232362 -1.19159,0.903122 -1.78739,1.354683 3.18837,-2.27448 5.50963,-3.43802 7.71179,-6.666783 2.07923,-3.04851 2.16987,-6.667053 -0.39869,-9.480369 -0.97081,-1.063317 -2.2775,-1.762222 -3.41626,-2.643333 -1.69023,-0.721804 -3.31979,-1.606631 -5.07069,-2.165411 -12.44236,-3.970845 -26.50666,-2.304163 -39.19012,-0.714884 -2.61154,0.454173 -5.232533,0.857028 -7.834629,1.362518 -6.990935,1.358076 -13.860754,3.225263 -20.689191,5.228491 0,0 8.409103,-6.430088 8.409103,-6.430088 z"
       inkscape:connector-curvature="0"
       transform="translate(0,852.36218)" />
    <path
       style="fill:#ffffff;fill-opacity:1;stroke:none"
       id="path3007"
       d="m 137.83307,104.48688 c 5.66334,-1.63244 11.33023,-3.25025 17.01059,-4.825141 3.25973,-0.765328 6.54861,-1.81717 9.91814,-2.016321 0.82495,-0.04876 2.845,-0.09938 3.57247,0.760974 0.353,0.417486 0.32907,1.042756 0.49361,1.564134 -0.21463,0.651964 -0.31546,1.353194 -0.64389,1.955904 -0.89809,1.64812 -2.87292,3.63519 -4.18949,4.82 -3.44805,3.10298 -7.33187,5.45332 -11.30577,7.80058 -4.31867,2.30353 -8.54614,4.78688 -12.95601,6.91061 -1.46247,0.7043 -3.05051,1.122 -4.61582,1.5517 -3.78528,1.03912 -8.07063,1.72903 -11.91615,0.48822 -0.9757,-0.31482 -1.83044,-0.92407 -2.74567,-1.3861 -0.66202,-0.62255 -1.41292,-1.16242 -1.98607,-1.86764 -1.67406,-2.05983 -2.79559,-5.55286 -1.31402,-8.02942 0.28334,-0.47362 0.75185,-0.80816 1.12778,-1.21224 3.54934,-1.86141 6.94109,-4.06063 10.64802,-5.58423 0.82992,-0.34111 4.59681,0.93186 5.06761,1.10442 3.88432,1.42374 7.62681,3.35896 11.35573,5.13185 7.22492,3.40128 14.96784,5.82667 23.00855,6.09707 6.18661,0.20805 7.72111,-0.41906 13.84205,-1.53561 8.61364,-2.80043 6.04684,-1.65218 14.41217,-5.67949 0.18251,-0.0879 -0.74816,0.27309 -0.58964,0.14699 2.37206,-1.88713 4.94959,-3.51209 7.27037,-5.46193 6.29347,-5.287583 8.27587,-7.935116 13.80888,-14.086354 9.45114,-12.009934 17.85604,-25.089063 23.42814,-39.385018 0.77323,-1.983806 1.38204,-4.027831 2.07306,-6.041747 0.86901,-3.430769 1.62421,-5.502915 1.74443,-8.950891 0.042,-1.20547 0.0352,-3.436879 -1.22811,-4.331696 -1.26016,-0.892563 -3.00705,0.148149 -4.0844,0.517238 -1.10239,0.665353 -4.39437,1.306137 -3.30718,1.996059 1.21674,0.772133 4.57947,-2.866375 4.04393,-1.528524 -0.9185,2.294555 -3.69709,3.285339 -5.44618,5.031568 -2.17012,2.166571 -4.2604,4.413736 -6.30432,6.699736 -5.84833,6.540969 -8.97349,10.639413 -14.5474,17.586692 -12.62593,16.361595 -25.52047,32.569422 -37.13822,49.678137 -1.76017,2.59207 -3.42809,5.24561 -5.14213,7.86841 -4.9558,8.33165 -2.77855,4.33958 -6.63484,11.9194 0,0 -8.75985,3.94218 -8.75985,3.94218 l 0,0 c 4.2285,-7.81447 1.86832,-3.71007 7.17068,-12.26092 1.79446,-2.66772 3.54838,-5.36316 5.38337,-8.00316 11.83412,-17.025756 24.74115,-33.281054 37.27452,-49.787818 5.34242,-6.815889 8.46823,-10.978963 14.03663,-17.441172 1.62078,-1.880934 8.61801,-9.773164 11.09614,-11.626095 8.18516,-6.120146 9.78754,-6.808207 16.39884,-10.273784 0.95518,-0.145717 1.90466,-0.538611 2.86556,-0.437151 6.1995,0.654601 2.00104,12.457704 1.21284,15.364279 -0.74397,2.064058 -1.40829,4.158588 -2.23191,6.192174 -5.82214,14.375285 -14.29004,27.587939 -23.72602,39.82887 -5.40485,6.141603 -7.41609,8.863429 -13.5684,14.174377 -7.225,6.23693 -13.45057,9.61146 -22.34425,14.42309 -2.36605,1.28007 -4.84809,2.34891 -7.36241,3.30543 -2.38521,0.90741 -4.87314,1.51753 -7.30972,2.27629 -6.32169,1.07072 -7.72279,1.66007 -14.08913,1.38358 -8.17783,-0.35516 -16.05334,-2.82455 -23.46205,-6.16471 -3.76639,-1.69127 -7.57785,-3.60112 -11.54883,-4.78811 -0.89474,-0.26745 -1.80807,-0.49824 -2.73616,-0.60189 -0.71988,-0.0804 -2.71053,0.53861 -2.17241,0.0537 2.13503,-1.92383 4.84338,-3.09508 7.26507,-4.64262 -0.44022,0.26022 -0.95701,0.42112 -1.32065,0.78066 -1.88543,1.86417 -0.87338,5.19705 0.55176,6.97038 0.50454,0.62781 1.17881,1.09784 1.76822,1.64676 0.83722,0.39605 1.62291,0.92754 2.51166,1.18815 3.70706,1.08702 7.80549,0.32946 11.40732,-0.72786 1.5385,-0.45163 3.72138,-2.99483 4.53227,-1.61157 0.79901,1.36302 -2.59103,1.80874 -3.88654,2.7131 5.9714,-3.42523 12.36895,-7.10626 16.04307,-13.15336 0.0651,-0.89397 0.2963,-0.93475 -1.00027,-1.12679 -3.52788,-0.5225 -8.23635,1.27322 -11.6417,1.96439 -5.85279,1.64938 -11.67503,3.39636 -17.50179,5.131 0,0 8.41392,-6.39876 8.41392,-6.39876 z"
       inkscape:connector-curvature="0"
       transform="translate(0,852.36218)" />
    <path
       style="fill:#ffffff;fill-opacity:1;stroke:none"
       id="path3009"
       d="m 221.05903,104.2843 c -3.06327,1.49264 -5.46673,2.69129 6.5013,-3.80547 0.65833,-0.35736 -1.27317,0.79264 -1.87524,1.23831 -2.41394,1.78687 -4.40203,3.90219 -6.38393,6.1398 -1.52189,2.03671 -3.07163,4.17874 -3.87808,6.62625 -0.0129,0.0391 -0.59754,1.66256 0.0576,1.91385 0.22547,0.0865 0.4668,-0.12394 0.7002,-0.18591 4.3722,-2.61648 -3.58161,2.15982 -6.1273,3.36161 -0.68738,0.3245 1.22245,-0.9121 1.76234,-1.44719 1.90847,-1.89155 2.6244,-3.52957 3.45158,-6.00984 0.0409,-0.63112 0.17441,-1.26304 0.12265,-1.89336 -0.29276,-3.56493 -3.21975,-4.19266 -6.15692,-4.43992 -1.34337,0.18809 -1.9526,0.16773 -3.18093,0.7306 -0.38499,0.17642 -1.44718,0.87926 -1.07554,0.67622 10.65885,-5.82326 5.22357,-5.49968 9.68528,-4.31586 7.37037,0.64194 14.77682,-0.51957 22.08953,-1.36203 3.40432,-0.23497 6.85974,-1.08969 10.29567,-0.75428 1.10467,0.10784 2.52028,0.38966 3.19892,1.44023 0.29742,0.46043 0.29486,1.05588 0.44229,1.58382 -0.39221,3.95972 -2.53015,7.42539 -3.77085,11.14274 -0.0183,0.18723 -0.0126,0.37838 -0.0549,0.56169 -0.0415,0.17978 -0.0254,-0.38377 0.0525,-0.55102 0.13348,-0.28654 0.84414,-0.90447 0.56052,-0.76491 -2.64367,1.3009 -5.07069,3.01776 -7.72749,4.29162 -0.61729,0.29597 1.04465,-0.8851 1.56076,-1.33485 0.59071,-0.51474 1.17305,-1.039 1.75958,-1.5585 1.77311,-1.50342 3.51338,-3.11492 5.53288,-4.29537 4.86634,-2.84451 8.27741,-6.07456 13.50027,-6.61411 0.36077,0.0965 0.7493,0.12042 1.08231,0.28944 1.96372,0.99662 1.72379,3.93474 1.74361,5.75083 0.0102,0.2589 -0.15644,3.32487 0.42934,3.21071 0.20054,-0.0391 0.3275,-0.24811 0.50995,-0.34006 0.35152,-0.17716 0.72391,-0.30948 1.08587,-0.46422 3.42197,-1.60849 6.72313,-3.59111 10.36809,-4.67475 0.67636,-0.20108 1.37286,-0.32683 2.0593,-0.49025 4.00278,-0.33612 5.18662,1.0737 5.34893,4.88525 -0.0569,1.01097 -0.25764,2.00471 -0.37451,3.00839 -0.0132,0.11296 0.0393,0.43564 -0.0229,0.34041 -0.11814,-0.18095 0.033,-0.71523 -0.16433,-0.62714 -3.0053,1.34153 -5.82414,3.06683 -8.73622,4.60025 5.3449,-4.09612 11.05364,-8.58456 17.63675,-10.25629 3.51136,-0.25463 5.65965,2.0456 8.58337,3.56519 4.34774,1.67465 8.62517,-0.25728 12.5238,-2.20378 5.88313,-3.43028 -2.24718,1.33368 -5.02211,2.6908 -0.5047,0.24682 0.88863,-0.6895 1.30457,-1.06717 2.7256,-2.47482 -0.28495,0.21557 1.07877,-1.29761 0.0294,-0.0327 0.006,0.0878 0.009,0.13165 -1.62757,3.40953 -0.26392,0.29503 8.16255,-4.06034 0.34989,-0.18085 -0.65762,0.44096 -0.94151,0.71398 -1.05924,1.0187 -1.49953,2.12109 -1.84306,3.5083 0.0424,0.37525 5.9e-4,0.76997 0.12721,1.12574 1.03477,2.90758 6.73899,0.60182 8.4126,0.0306 1.08291,-0.5178 4.24701,-2.21991 3.24872,-1.5534 -1.54659,1.03257 -3.18809,3.37454 -4.90447,2.65886 -1.55481,-0.64831 2.74605,-1.95534 4.05823,-3.01172 5.30998,-4.27484 9.64024,-9.00315 14.19089,-14.04871 9.52036,-11.400158 18.35242,-23.365675 27.09219,-35.370237 1.45415,-2.053666 3.45544,-4.794364 4.8196,-7.002012 0.37977,-0.614585 1.57753,-2.477257 1.61375,-3.5294 0.0175,-0.507936 -0.96734,0.352866 -1.37838,0.651781 2.2354,-1.220258 4.30469,-2.812945 6.7062,-3.660774 1.19671,-0.42249 -2.04499,1.509173 -2.99506,2.350592 -1.20789,1.069743 -2.36746,2.196761 -3.46983,3.374941 -4.506,4.815868 -8.25251,10.231817 -12.05109,15.600154 -5.99978,9.10899 -12.01484,18.391873 -15.99732,28.604178 -0.52982,1.358608 -0.94438,2.759387 -1.41657,4.139087 -0.24158,1.14985 -2.24567,7.63134 -0.58709,8.61292 0.51957,0.30749 2.02681,-0.68547 2.1607,-0.75472 -2.33114,1.2759 -4.53867,2.80972 -6.99343,3.8277 -0.95108,0.39441 1.63514,-1.25373 2.41307,-1.92823 0.97057,-0.84153 1.90572,-1.72377 2.82902,-2.6169 3.79672,-3.67268 7.43318,-7.52139 11.07588,-11.344539 10.08861,-10.549658 19.81748,-21.431993 29.57441,-32.286268 6.74203,-7.625078 13.7552,-15.126717 19.07951,-23.846539 0.29238,-0.638313 1.17062,-2.111741 1.04888,-3.045939 -0.017,-0.130552 -0.23488,-0.209774 -0.35876,-0.16519 -0.32783,0.117985 -0.56659,0.405742 -0.85455,0.601866 -0.53449,0.364022 -2.19621,1.3571 -1.61265,1.078459 2.16336,-1.032958 4.24351,-2.231825 6.36526,-3.347738 -8.96981,7.846291 -15.49206,18.036287 -22.15208,27.809085 -6.3814,9.807026 -12.82073,19.661593 -17.94106,30.20802 -0.7633,1.572163 -1.43782,3.185896 -2.15673,4.778844 -1.33619,3.421299 -2.7919,6.906549 -3.11526,10.610959 -0.0841,0.9632 -0.12479,2.64708 0.53424,3.55988 0.21698,0.30054 0.626,0.39717 0.93899,0.59575 0.48083,-0.0309 0.96958,-4.3e-4 1.44248,-0.0927 1.51788,-0.29612 3.22424,-1.02845 4.57537,-1.69233 1.00639,-0.49449 3.91695,-2.18308 2.95811,-1.60174 -1.75045,1.06127 -3.49086,2.15287 -5.33448,3.0425 -1.19088,0.57465 2.24604,-1.39607 3.36906,-2.0941 4.99879,-3.45749 10.22687,-6.74018 14.56914,-11.03201 0.89093,1.43835 0.58674,-1.746205 1.08576,-1.420406 0.20357,0.132905 0.17612,0.500966 0.0812,0.724796 -0.1133,0.26726 -0.89639,0.72605 -0.6392,0.59144 7.1078,-3.720039 10.32632,-6.269314 6.02705,-3.025081 -3.13228,2.666751 -6.04456,5.681011 -8.0372,9.305421 -0.0926,0.2274 -0.18449,0.45512 -0.27793,0.68219 -0.16043,0.38985 0.15681,-0.87642 0.001,-0.80551 -2.84726,1.29619 -5.43959,3.09272 -8.19186,4.58002 -0.43673,0.236 0.83311,-0.54037 1.24073,-0.8237 0.4636,-0.32224 0.91493,-0.66178 1.3724,-0.99267 1.80914,-1.30511 3.52686,-2.76064 5.47482,-3.86346 10.52872,-5.96071 6.5365,-4.8684 11.81305,-6.126518 2.86364,-0.593443 4.08735,0.07321 6.12102,1.933258 1.2397,1.37039 1.90196,1.20768 3.5412,0.64588 2.66787,-1.23834 5.56009,-1.52578 8.45467,-1.71952 7.52549,-0.0106 15.00044,-0.539 22.46099,-1.500825 3.76988,-0.704582 6.24138,-1.017519 9.87173,-2.282729 1.53186,-0.533865 4.17829,-3.498712 4.47852,-1.904518 0.30691,1.629659 -3.2556,3.521865 -4.39996,2.321683 -1.10244,-1.156228 2.50687,-1.992949 3.63198,-3.12713 1.17181,-1.18125 2.15891,-2.532394 3.23837,-3.798591 3.12732,-4.160823 5.21418,-8.892089 7.28435,-13.623773 0,0 8.8942,-4.082067 8.8942,-4.082067 l 0,0 c -2.06296,4.788045 -4.13916,9.581018 -7.15975,13.87013 -1.92448,2.397367 -4.06775,5.464896 -6.70674,7.206413 -5.20633,3.435756 -10.93697,7.121927 -17.03416,9.103227 -3.60202,1.17049 -6.23116,1.51039 -9.95398,2.18046 -7.61645,0.98754 -15.25018,1.51283 -22.9235,1.79283 -2.93192,0.31697 -5.75982,0.88821 -8.51549,1.96554 -1.87666,0.30336 -2.87884,-0.0676 -4.14117,-1.48523 -1.84201,-1.65986 -2.97906,-1.74197 -5.41686,-1.11877 -4.15363,1.43646 -1.53453,0.63191 6.18462,-3.99413 0.46269,-0.27729 -0.95399,0.50564 -1.4121,0.79044 -0.67369,0.41881 -2.12532,1.47775 -2.75756,1.94971 -0.4544,0.33921 -0.90138,0.68827 -1.35207,1.0324 -4.15647,3.0824 -6.85126,4.92986 -12.51332,7.5449 -0.64219,0.2966 -1.21641,-0.78768 -1.17397,-1.22965 0.0283,-0.2949 0.21419,-0.55245 0.32128,-0.82868 1.93258,-3.77547 4.89997,-6.88418 7.98719,-9.74881 4.30434,-3.620355 2.70509,-2.424935 11.85763,-7.334694 0.80771,-0.433287 1.64828,-0.08627 1.90748,0.81055 0.13037,0.451056 -1.11782,1.788548 -1.15247,1.831804 -4.32934,4.50717 -9.77715,7.76865 -14.82533,11.3896 -6.4595,4.09855 -4.75249,3.07946 -15.21678,8.98658 -2.34138,1.32172 -5.34095,3.02595 -8.14852,3.01963 -0.6223,-0.001 -1.21695,-0.26092 -1.82542,-0.39138 -0.39771,-0.37685 -0.90809,-0.66264 -1.19312,-1.13056 -0.70703,-1.16067 -0.67953,-2.87525 -0.55241,-4.12502 0.39235,-3.85761 1.95137,-7.47133 3.38653,-11.02328 0.7523,-1.62642 1.4609,-3.27377 2.25689,-4.879258 5.24977,-10.588695 11.78369,-20.487206 18.15041,-30.418801 6.47783,-9.673668 12.79275,-19.698704 21.25489,-27.790909 3.71279,-2.30026 7.38483,-4.667643 11.13839,-6.90078 1.05324,-0.626616 3.71136,-1.859892 4.16968,0.357515 0.23351,1.129769 -0.76979,2.738312 -1.156,3.567473 -5.59337,8.855173 -12.76581,16.538241 -19.73158,24.315968 -9.7309,10.773784 -19.38309,21.620206 -29.32264,32.203537 -3.52337,3.78468 -7.06024,7.566075 -10.69453,11.245375 -0.3088,0.31263 -4.22525,4.19124 -4.91211,4.62608 -3.53035,2.23504 -7.23421,4.18345 -10.85132,6.27518 -0.58258,0.084 -1.16482,0.33346 -1.74774,0.25189 -3.85869,-0.53993 -0.97633,-8.45029 -0.54804,-10.28645 0.50812,-1.42415 0.95735,-2.8707 1.52436,-4.27244 4.15678,-10.276297 10.24958,-19.648302 16.23848,-28.917736 3.67168,-5.32619 7.29215,-10.713502 11.57704,-15.579542 0.85771,-0.974035 4.60514,-4.921012 6.00697,-5.80538 3.62046,-2.284029 7.43826,-4.239131 11.15739,-6.358696 0.59951,0.03771 1.25716,-0.147181 1.79853,0.113119 1.17842,0.566612 0.5806,1.95928 0.23773,2.699135 -1.63001,3.517249 -4.49113,6.351776 -6.55985,9.578823 -8.96751,11.95036 -17.88485,23.952789 -27.30257,35.552897 -1.61162,1.84015 -3.1747,3.72397 -4.83486,5.520449 -8.00739,8.664891 -17.36836,15.830231 -28.42134,20.290571 -1.00267,0.297 -1.98378,0.6801 -3.00802,0.89102 -2.34299,0.48248 -5.59581,0.40739 -6.63349,-2.24092 -0.18006,-0.45956 -0.1861,-0.96945 -0.27915,-1.45418 0.20617,-1.42845 0.11106,-1.57093 0.77379,-2.89042 0.21948,-0.437 1.0764,-1.809 1.58103,-2.1084 9.88305,-5.8637 6.58728,-7.14585 10.88683,-5.0753 0.13421,0.26165 0.37438,0.49225 0.40263,0.78495 0.10463,1.084 -1.70493,2.54797 -2.39816,2.98844 -7.57653,4.81402 -7.60817,4.78844 -12.5975,7.49342 -4.21478,1.91367 -8.71784,3.55553 -13.21518,1.51702 -2.673,-1.44125 -4.88137,-3.56576 -8.12481,-2.90476 -4.19416,1.40971 -1.91652,0.7655 5.69166,-3.81958 0.54848,-0.33054 -1.11535,0.63113 -1.65265,0.97956 -1.05839,0.68637 -1.77302,1.2613 -2.72047,2.06351 -0.29482,0.24962 -0.57845,0.51217 -0.86767,0.76825 -3.34559,1.84223 -8.78795,8.16475 -10.43988,4.72122 -0.22599,-0.47108 0.61164,-2.77881 0.55461,-3.36108 0.0648,-3.43156 -0.7725,-3.81984 -4.2143,-3.37794 -4.40857,1.21499 -8.34786,3.46443 -12.52056,5.2824 -0.45242,0.0846 -0.89768,0.27882 -1.35725,0.25373 -2.15288,-0.11756 -1.72098,-2.89622 -1.68757,-4.30398 -0.003,-0.9218 0.17958,-3.40481 -0.49057,-4.1545 -0.3752,-0.41972 -0.91655,-0.32704 -1.40194,-0.35296 -3.61349,0.75654 -8.20999,3.95656 4.48711,-3.42395 0.64645,-0.37577 -1.28238,0.77128 -1.89762,1.19622 -0.65095,0.4496 -1.27984,0.93123 -1.89778,1.4252 -0.61816,0.49415 -1.2059,1.02519 -1.80885,1.53778 -5.1699,4.65523 -4.13657,3.89652 -13.31736,9.11108 -0.77349,0.43933 -1.50349,0.26674 -1.8782,-0.56293 -0.118,-0.26129 0.0226,-0.57295 0.0339,-0.85943 1.22381,-3.58884 3.24967,-6.89954 4.01139,-10.65041 -0.0213,-0.31514 0.0956,-0.67276 -0.0639,-0.94543 -0.45155,-0.77228 -1.97137,-0.96049 -2.60726,-1.01573 -3.32829,-0.28909 -6.6691,0.43335 -9.97068,0.6626 -4.41926,0.49825 -8.83633,1.05881 -13.27283,1.38569 -1.98164,0.14601 -5.10365,0.34314 -7.16731,0.21331 -0.80429,-0.0506 -1.59556,-0.22805 -2.39334,-0.34207 -0.52244,-0.27026 -1.13057,-0.4168 -1.56734,-0.81079 -2.81121,-2.53586 5.53611,-5.24206 8.75417,-7.23646 0.6563,-0.40674 2.02102,-0.711104 2.72196,-0.788362 0.60426,-0.0666 1.21534,-0.03502 1.823,-0.05253 0.63667,0.108333 1.28829,0.150233 1.91001,0.325001 2.62348,0.73746 4.68571,2.64566 5.01407,5.44788 0.0834,0.71183 -0.0335,1.43299 -0.0503,2.14949 -0.21283,0.76034 -0.35208,1.54524 -0.63848,2.28103 -2.42109,6.22029 -10.4797,11.2721 -16.41851,12.21562 -0.40287,-0.20706 -0.89518,-0.29415 -1.20862,-0.62116 -2.06566,-2.1551 2.56579,-8.08329 3.64993,-9.78255 0.67482,-0.8072 1.31585,-1.6439 2.02446,-2.4216 4.78517,-5.25171 10.98027,-8.64155 17.35792,-11.729045 0,0 -8.28522,6.627385 -8.28522,6.627385 z"
       inkscape:connector-curvature="0"
       transform="translate(0,852.36218)" />
  </g>
</svg>
